HIERARCHY
ROOT Hips
{
	OFFSET 0.000000 8.830580 0.000000
	CHANNELS 6 Xposition Yposition Zposition Zrotation Yrotation Xrotation 
	JOINT Spine
	{
		OFFSET 0.000000 0.010000 0.000000
		CHANNELS 3 Zrotation Yrotation Xrotation
		JOINT Spine1
		{
			OFFSET 0.000000 2.459130 0.000000
			CHANNELS 3 Zrotation Yrotation Xrotation
			JOINT Neck
			{
				OFFSET 0.000000 2.484630 0.000000
				CHANNELS 3 Zrotation Yrotation Xrotation
				JOINT Head_virtual
				{
					OFFSET 0.000000 0.000000 0.000000
					CHANNELS 3 Zrotation Yrotation Xrotation
					JOINT Head
					{
						OFFSET 0.000000 0.927525 0.000000
						CHANNELS 3 Zrotation Yrotation Xrotation
						End Site
						{
							OFFSET 0.000000 0.000000 0.000000
						}
					}
				}
				JOINT LeftUpArm_virtual
				{
					OFFSET 0.000000 0.000000 0.000000
					CHANNELS 3 Zrotation Yrotation Xrotation
					JOINT LeftUpArm
					{
						OFFSET 1.248820 0.000000 0.000000
						CHANNELS 3 Zrotation Yrotation Xrotation
						JOINT LeftForeArm
						{
							OFFSET 2.597580 0.000000 0.000000
							CHANNELS 3 Zrotation Yrotation Xrotation
							JOINT LeftHand
							{
								OFFSET 2.455420 0.000000 0.000000
								CHANNELS 3 Zrotation Yrotation Xrotation
								End Site
								{
									OFFSET 0.000000 0.000000 0.000000
								}
							}
						}
					}
				}
				JOINT RightUpArm_virtual
				{
					OFFSET -0.000000 -0.000000 -0.000000
					CHANNELS 3 Zrotation Yrotation Xrotation
					JOINT RightUpArm
					{
						OFFSET -1.248820 -0.000000 -0.000000
						CHANNELS 3 Zrotation Yrotation Xrotation
						JOINT RightForeArm
						{
							OFFSET -2.597580 -0.000000 -0.000000
							CHANNELS 3 Zrotation Yrotation Xrotation
							JOINT RightHand
							{
								OFFSET -2.455420 -0.000000 -0.000000
								CHANNELS 3 Zrotation Yrotation Xrotation
								End Site
								{
									OFFSET 0.000000 0.000000 0.000000
								}
							}
						}
					}
				}
			}
		}
	}
	JOINT LeftUpLeg
	{
		OFFSET 1.271939 0.000000 0.000000
		CHANNELS 3 Zrotation Yrotation Xrotation
		JOINT LeftLowLeg
		{
			OFFSET 0.000000 -4.342910 0.000000
			CHANNELS 3 Zrotation Yrotation Xrotation
			JOINT LeftFoot
			{
				OFFSET 0.000000 -4.487670 0.000000
				CHANNELS 3 Zrotation Yrotation Xrotation
				JOINT LeftToeBase
				{
					OFFSET 0.000000 0.000000 1.515070
					CHANNELS 3 Zrotation Yrotation Xrotation
					End Site
					{
						OFFSET 0.000000 0.000000 0.000000
					}
				}
			}
		}
	}
	JOINT RightUpLeg
	{
		OFFSET -1.271939 0.000000 0.000000
		CHANNELS 3 Zrotation Yrotation Xrotation
		JOINT RightLowLeg
		{
			OFFSET 0.000000 -4.342910 0.000000
			CHANNELS 3 Zrotation Yrotation Xrotation
			JOINT RightFoot
			{
				OFFSET 0.000000 -4.487670 0.000000
				CHANNELS 3 Zrotation Yrotation Xrotation
				JOINT RightToeBase
				{
					OFFSET 0.000000 0.000000 1.515070
					CHANNELS 3 Zrotation Yrotation Xrotation
					End Site
					{
						OFFSET 0.000000 0.000000 0.000000
					}
				}
			}
		}
	}
}
MOTION
Frames: 7
Frame Time: 0.041667
-19.440697 9.218360 46.652822 -175.803013 1.604509 -174.771219 2.463005 -1.150055 -7.527825 -0.326687 -1.386548 4.429110 0.000000 0.000000 0.000000 0.164642 -0.634075 -11.634815 9.050985 4.219619 -55.600982 -2.956560 12.173900 -3.290850 -12.542100 -0.729638 -32.397701 0.000000 -19.539000 0.000000 27.010000 5.951010 17.017300 10.802500 -10.157800 -1.114530 7.458100 1.770870 -35.602798 0.000000 18.504999 0.000000 -17.390800 -1.573740 24.672300 3.944493 5.855425 -4.327582 0.000000 0.000000 7.221870 9.451644 -1.160552 6.556401 0.000000 0.000000 -37.452700 1.178076 6.657784 -2.875115 0.000000 0.000000 6.619400 9.667843 -6.289142 9.669095 0.000000 0.000000 -27.869300 
-19.438131 9.218251 46.653300 -175.800920 1.617440 -174.771940 2.448594 -1.163805 -7.527902 -0.309654 -1.397105 4.435611 0.000000 0.000000 0.000000 0.004808 -0.555867 -11.621881 9.016289 4.212593 -55.551316 -2.954360 12.180800 -3.297250 -12.510800 -0.733260 -32.341999 0.000000 -19.512300 0.000000 27.032900 5.895580 17.255899 10.799100 -10.162300 -1.114560 7.471280 1.802120 -35.604099 0.000000 18.499100 0.000000 -17.433201 -1.570400 24.678301 3.961118 5.927503 -4.344241 0.000000 0.000000 7.257720 9.445569 -1.214575 6.532474 0.000000 0.000000 -37.455700 1.190582 6.714772 -2.892528 0.000000 0.000000 6.648090 9.687212 -6.310023 9.648718 0.000000 0.000000 -27.861400 
-19.435446 9.218368 46.653415 -175.800973 1.618825 -174.786596 2.444720 -1.162149 -7.513154 -0.323078 -1.394863 4.440168 0.000000 0.000000 0.000000 -0.113078 -0.501586 -11.600159 8.993725 4.210962 -55.550029 -2.942450 12.174400 -3.303500 -12.482700 -0.755792 -32.331200 0.000000 -19.478701 0.000000 27.061600 5.858240 17.311399 10.815800 -10.204200 -1.109560 7.478220 1.825470 -35.574902 0.000000 18.491199 0.000000 -17.381599 -1.547740 24.663799 3.979419 5.932453 -4.336016 0.000000 0.000000 7.269660 9.430507 -1.224803 6.534870 0.000000 0.000000 -37.458799 1.206899 6.759767 -2.887409 0.000000 0.000000 6.665140 9.691446 -6.341558 9.639380 0.000000 0.000000 -27.880500 
-19.433463 9.218440 46.653643 -175.794943 1.624010 -174.803253 2.434786 -1.174092 -7.503614 -0.305097 -1.404496 4.460122 0.000000 0.000000 0.000000 -0.189360 -0.470100 -11.584286 8.956292 4.213414 -55.557555 -2.941140 12.188300 -3.325030 -12.476800 -0.744164 -32.277199 0.000000 -19.496401 0.000000 27.043600 5.879810 17.332899 10.807300 -10.181400 -1.103960 7.496150 1.803630 -35.581799 0.000000 18.504000 0.000000 -17.447500 -1.549040 24.563200 3.997898 5.960578 -4.327873 0.000000 0.000000 7.288330 9.425484 -1.241075 6.519336 0.000000 0.000000 -37.462900 1.226074 6.795052 -2.880812 0.000000 0.000000 6.680990 9.693017 -6.367551 9.635373 0.000000 0.000000 -27.879900 
-19.430761 9.218534 46.654100 -175.791391 1.629234 -174.817098 2.381073 -1.216617 -7.509923 -0.206568 -1.434732 4.517109 0.000000 0.000000 0.000000 -0.373900 -0.400875 -11.603288 8.940751 4.187432 -55.555781 -2.975390 12.248800 -3.344820 -12.472900 -0.749842 -32.230400 0.000000 -19.495399 0.000000 26.997000 5.864770 17.385500 10.760200 -10.126800 -1.106550 7.512230 1.794340 -35.570999 0.000000 18.504900 0.000000 -17.469101 -1.632170 24.495600 4.017856 5.993214 -4.321927 0.000000 0.000000 7.300270 9.417747 -1.266300 6.519599 0.000000 0.000000 -37.467501 1.246997 6.790802 -2.878360 0.000000 0.000000 6.700330 9.685642 -6.358041 9.630795 0.000000 0.000000 -27.871000 
-19.428256 9.218442 46.654604 -175.792373 1.633510 -174.826513 2.366846 -1.224297 -7.507664 -0.196365 -1.439316 4.548048 0.000000 0.000000 0.000000 -0.468522 -0.366529 -11.622595 8.939946 4.168531 -55.543683 -2.963250 12.251500 -3.344320 -12.464600 -0.741878 -32.237000 0.000000 -19.507900 0.000000 26.949499 5.881800 17.416000 10.758300 -10.128000 -1.146180 7.525320 1.785510 -35.547901 0.000000 18.511999 0.000000 -17.404900 -1.693740 24.548100 4.032057 6.015384 -4.319107 0.000000 0.000000 7.309420 9.402924 -1.284373 6.511573 0.000000 0.000000 -37.454100 1.262092 6.783950 -2.881793 0.000000 0.000000 6.723070 9.667864 -6.346689 9.617529 0.000000 0.000000 -27.875000 
-19.425969 9.218538 46.654954 -175.795289 1.617018 -174.841437 2.288370 -1.302660 -7.553914 -0.044925 -1.499591 4.677385 0.000000 0.000000 0.000000 -0.660748 -0.314919 -11.691792 8.959376 4.106372 -55.530278 -3.064170 12.339200 -3.420120 -12.418500 -0.727374 -32.203899 0.000000 -19.499001 0.000000 26.969999 5.858020 17.643600 10.689300 -10.039800 -1.191890 7.519340 1.806550 -35.554600 0.000000 18.481400 0.000000 -17.391701 -1.733190 24.597300 4.045792 5.994261 -4.313026 0.000000 0.000000 7.315100 9.385084 -1.286557 6.523902 0.000000 0.000000 -37.471399 1.276347 6.751541 -2.869707 0.000000 0.000000 6.729850 9.658532 -6.332557 9.613217 0.000000 0.000000 -27.868700 
